<?xml version="1.0" encoding="UTF-8" standalone="no"?>
<svg
   xmlns:dc="http://purl.org/dc/elements/1.1/"
   xmlns:cc="http://creativecommons.org/ns#"
   xmlns:rdf="http://www.w3.org/1999/02/22-rdf-syntax-ns#"
   xmlns:svg="http://www.w3.org/2000/svg"
   xmlns="http://www.w3.org/2000/svg"
   xmlns:sodipodi="http://sodipodi.sourceforge.net/DTD/sodipodi-0.dtd"
   xmlns:inkscape="http://www.inkscape.org/namespaces/inkscape"
   style="fill-opacity:1; color-rendering:auto; color-interpolation:auto; text-rendering:auto; stroke:black; stroke-linecap:square; stroke-miterlimit:10; shape-rendering:auto; stroke-opacity:1; fill:black; stroke-dasharray:none; font-weight:normal; stroke-width:1; font-family:'Dialog'; font-style:normal; stroke-linejoin:miter; font-size:12px; stroke-dashoffset:0; image-rendering:auto;"
   width="840"
   height="630"
   version="1.1"
   id="svg433"
   sodipodi:docname="dummy.svg"
   inkscape:version="0.92.3 (2405546, 2018-03-11)">
  <metadata
     id="metadata437">
    <rdf:RDF>
      <cc:Work
         rdf:about="">
        <dc:format>image/svg+xml</dc:format>
        <dc:type
           rdf:resource="http://purl.org/dc/dcmitype/StillImage" />
        <dc:title></dc:title>
      </cc:Work>
    </rdf:RDF>
  </metadata>
  <sodipodi:namedview
     pagecolor="#ffffff"
     bordercolor="#666666"
     borderopacity="1"
     objecttolerance="10"
     gridtolerance="10"
     guidetolerance="10"
     inkscape:pageopacity="0"
     inkscape:pageshadow="2"
     inkscape:window-width="2142"
     inkscape:window-height="1406"
     id="namedview435"
     showgrid="false"
     inkscape:zoom="1.5464286"
     inkscape:cx="420"
     inkscape:cy="315"
     inkscape:window-x="3499"
     inkscape:window-y="288"
     inkscape:window-maximized="0"
     inkscape:current-layer="g189" />
  <!--Generated by the Batik Graphics2D SVG Generator-->
  <defs
     id="genericDefs" />
  <g
     id="g431">
    <defs
       id="defs1">
      <clipPath
         clipPathUnits="userSpaceOnUse"
         id="clipPath1">
        <path
           d="M0 0 L840 0 L840 630 L0 630 L0 0 Z"
           id="path3" />
      </clipPath>
    </defs>
    <g
       transform="translate(41,296) rotate(-90)"
       style="font-size:40px; fill:rgb(38,38,38); text-rendering:geometricPrecision; image-rendering:optimizeQuality; color-rendering:optimizeQuality; font-family:'mwb_cmmi10'; stroke:rgb(38,38,38); color-interpolation:linearRGB;"
       id="g189">
      <path
         style="stroke:none;"
         d="M6.2344 -0.6094 Q6.2344 -0.875 6.2969 -1.0312 L10.4844 -14.7656 L6.875 -14.7656 Q5.4062 -14.7656 4.1406 -13.8516 Q2.875 -12.9375 2.0312 -11.5312 Q1.9531 -11.375 1.7969 -11.375 L1.3281 -11.375 Q0.9531 -11.375 0.9531 -11.7656 Q0.9531 -11.8438 1.0312 -12 Q2.3438 -14.2188 3.8359 -15.7344 Q5.3281 -17.25 7.2031 -17.25 L19.4688 -17.25 Q19.9062 -17.25 20.1953 -16.9531 Q20.4844 -16.6562 20.4844 -16.2344 Q20.4844 -15.6406 20.0703 -15.2031 Q19.6562 -14.7656 19.0469 -14.7656 L11.7969 -14.7656 L9.125 -0.9531 Q8.9688 -0.3125 8.5391 0.1094 Q8.1094 0.5312 7.4375 0.5312 Q6.9375 0.5312 6.5859 0.2031 Q6.2344 -0.125 6.2344 -0.6094 Z"
         id="path187" />
    </g>
    <g
       transform="translate(61,278) rotate(-90)"
       style="font-size:32px; fill:rgb(38,38,38); text-rendering:geometricPrecision; image-rendering:optimizeQuality; color-rendering:optimizeQuality; font-family:'SansSerif'; stroke:rgb(38,38,38); color-interpolation:linearRGB;"
       id="g193">
      <path
         style="stroke:none;"
         d="M0.625 0 L0.625 -2.2812 L11.1875 -14.4062 Q9.3906 -14.3125 8.0156 -14.3125 L1.25 -14.3125 L1.25 -16.5938 L14.8125 -16.5938 L14.8125 -14.7344 L5.8281 -4.2031 L4.0938 -2.2812 Q5.9844 -2.4219 7.6406 -2.4219 L15.3125 -2.4219 L15.3125 0 L0.625 0 Z"
         id="path191" />
    </g>
    <g
       transform="translate(111.9958,196.4411)"
       style="font-size:20px; fill:rgb(38,38,38); text-rendering:geometricPrecision; image-rendering:optimizeQuality; color-rendering:optimizeQuality; font-family:'SansSerif'; stroke:rgb(38,38,38); color-interpolation:linearRGB;"
       id="g207" />
    <g
       transform="translate(244,594)"
       style="font-size:40px; fill:rgb(38,38,38); text-rendering:geometricPrecision; image-rendering:optimizeQuality; color-rendering:optimizeQuality; font-family:'SansSerif'; stroke:rgb(38,38,38); color-interpolation:linearRGB;"
       id="g241">
      <path
         style="stroke:none;"
         d="M3.4844 0 L3.4844 -18.0156 L0.375 -18.0156 L0.375 -20.75 L3.4844 -20.75 L3.4844 -22.9531 Q3.4844 -25.0469 3.8438 -26.0625 Q4.3594 -27.4219 5.6406 -28.2734 Q6.9219 -29.125 9.2188 -29.125 Q10.7031 -29.125 12.5 -28.7656 L11.9688 -25.7031 Q10.875 -25.9062 9.9062 -25.9062 Q8.2969 -25.9062 7.6328 -25.2188 Q6.9688 -24.5312 6.9688 -22.6562 L6.9688 -20.75 L11.0156 -20.75 L11.0156 -18.0156 L6.9688 -18.0156 L6.9688 0 L3.4844 0 Z"
         id="path239" />
    </g>
    <g
       transform="translate(256,614)"
       style="font-size:32px; fill:rgb(38,38,38); text-rendering:geometricPrecision; image-rendering:optimizeQuality; color-rendering:optimizeQuality; font-family:'SansSerif'; stroke:rgb(38,38,38); color-interpolation:linearRGB;"
       id="g245">
      <path
         style="stroke:none;"
         d="M1.9844 6.3906 L1.6719 3.75 Q2.5938 4 3.2812 4 Q4.2188 4 4.7812 3.6875 Q5.3438 3.375 5.7031 2.8125 Q5.9688 2.3906 6.5625 0.7188 Q6.6406 0.4844 6.8125 0.0312 L0.5156 -16.5938 L3.5469 -16.5938 L7 -6.9844 Q7.6719 -5.1562 8.2031 -3.1406 Q8.6875 -5.0781 9.3594 -6.9219 L12.9062 -16.5938 L15.7188 -16.5938 L9.4062 0.2812 Q8.3906 3.0156 7.8281 4.0469 Q7.0781 5.4375 6.1094 6.0859 Q5.1406 6.7344 3.7969 6.7344 Q2.9844 6.7344 1.9844 6.3906 Z"
         id="path243" />
    </g>
    <g
       transform="translate(550,602)"
       style="font-size:40px; fill:rgb(38,38,38); text-rendering:geometricPrecision; image-rendering:optimizeQuality; color-rendering:optimizeQuality; font-family:'SansSerif'; stroke:rgb(38,38,38); color-interpolation:linearRGB;"
       id="g269">
      <path
         style="stroke:none;"
         d="M3.4844 0 L3.4844 -18.0156 L0.375 -18.0156 L0.375 -20.75 L3.4844 -20.75 L3.4844 -22.9531 Q3.4844 -25.0469 3.8438 -26.0625 Q4.3594 -27.4219 5.6406 -28.2734 Q6.9219 -29.125 9.2188 -29.125 Q10.7031 -29.125 12.5 -28.7656 L11.9688 -25.7031 Q10.875 -25.9062 9.9062 -25.9062 Q8.2969 -25.9062 7.6328 -25.2188 Q6.9688 -24.5312 6.9688 -22.6562 L6.9688 -20.75 L11.0156 -20.75 L11.0156 -18.0156 L6.9688 -18.0156 L6.9688 0 L3.4844 0 Z"
         id="path267" />
    </g>
    <g
       transform="translate(562,622)"
       style="font-size:32px; fill:rgb(38,38,38); text-rendering:geometricPrecision; image-rendering:optimizeQuality; color-rendering:optimizeQuality; font-family:'SansSerif'; stroke:rgb(38,38,38); color-interpolation:linearRGB;"
       id="g273">
      <path
         style="stroke:none;"
         d="M0.2344 0 L6.2969 -8.625 L0.6875 -16.5938 L4.2031 -16.5938 L6.75 -12.7031 Q7.4688 -11.5938 7.9062 -10.8438 Q8.5938 -11.875 9.1719 -12.6719 L11.9688 -16.5938 L15.3281 -16.5938 L9.5938 -8.7812 L15.7656 0 L12.3125 0 L8.9062 -5.1562 L8 -6.5469 L3.6406 0 L0.2344 0 Z"
         id="path271" />
    </g>
  </g>
</svg>
