<svg version="1.1" width="594.667" height="721.333" viewBox="0 0 446.07 540.6" xmlns="http://www.w3.org/2000/svg" xmlns:xlink="http://www.w3.org/1999/xlink" overflow="hidden"><defs><linearGradient x1="0%" y1="0%" x2="100%" y2="0%" spreadMethod="pad" id="g-terminatorvyxolq5to"><stop offset="0" stop-color="#FF8787" stop-opacity="1"/><stop offset="1" stop-color="#FFB9B9" stop-opacity="1"/></linearGradient><linearGradient x1="0%" y1="0%" x2="100%" y2="0%" spreadMethod="pad" id="g-decisionvyxolq5to"><stop offset="0" stop-color="#FFD287" stop-opacity="1"/><stop offset="1" stop-color="#FFFFB9" stop-opacity="1"/></linearGradient><linearGradient x1="0%" y1="0%" x2="100%" y2="0%" spreadMethod="pad" id="g-processvyxolq5to"><stop offset="0" stop-color="#99FF99" stop-opacity="1"/><stop offset="1" stop-color="#CBFFCB" stop-opacity="1"/></linearGradient><linearGradient x1="0%" y1="0%" x2="100%" y2="0%" spreadMethod="pad" id="g-defaultvyxolq5to"><stop offset="0" stop-color="#99FF99" stop-opacity="1"/><stop offset="1" stop-color="#CBFFCB" stop-opacity="1"/></linearGradient><linearGradient x1="0%" y1="0%" x2="100%" y2="0%" spreadMethod="pad" id="g-modulevyxolq5to"><stop offset="0" stop-color="#77C1E4" stop-opacity="1"/><stop offset="1" stop-color="#A9F3FF" stop-opacity="1"/></linearGradient><linearGradient x1="0%" y1="0%" x2="100%" y2="0%" spreadMethod="pad" id="g-dataiovyxolq5to"><stop offset="0" stop-color="#BEBEBE" stop-opacity="1"/><stop offset="1" stop-color="#F0F0F0" stop-opacity="1"/></linearGradient><linearGradient x1="0%" y1="0%" x2="100%" y2="0%" spreadMethod="pad" id="g-preparationvyxolq5to"><stop offset="0" stop-color="#BEBEBE" stop-opacity="1"/><stop offset="1" stop-color="#F0F0F0" stop-opacity="1"/></linearGradient><linearGradient x1="0%" y1="0%" x2="100%" y2="0%" spreadMethod="pad" id="g-commentvyxolq5to"><stop offset="0" stop-color="#F5F588" stop-opacity="1"/><stop offset="1" stop-color="#FFFFBA" stop-opacity="1"/></linearGradient><linearGradient x1="0%" y1="0%" x2="100%" y2="0%" spreadMethod="pad" id="g-manualvyxolq5to"><stop offset="0" stop-color="#9E78FF" stop-opacity="1"/><stop offset="1" stop-color="#D0AAFF" stop-opacity="1"/></linearGradient></defs><g id="flowvyxolq5to" transform="matrix(1,0,0,1,4,531.6)"><g id="node1"><ellipse cx="333" cy="-509.6" rx="100.145" ry="18" stroke="#000000" fill="url(#g-terminatorvyxolq5to)"/><text fill="#000000" font-family="open sans,noto sans sc,noto sans tc,noto sans jp,noto sans kr" font-size="10" text-anchor="start" x="256" y="-507.1">Polygons {P}, Polygon vertices {L}</text></g><g id="node2"><path d=" M 422 -464.6 L 244 -464.6 L 244 -428.6 L 422 -428.6 L 422 -464.6 Z" stroke="#000000" fill="url(#g-processvyxolq5to)"/><text fill="#000000" font-family="open sans,noto sans sc,noto sans tc,noto sans jp,noto sans kr" font-size="10" text-anchor="start" x="251" y="-445.1">Initialize </text><text fill="#000000" font-family="noto mono" font-size="10" text-anchor="start" x="292" y="-445.1">C = {c}</text><text fill="#000000" font-family="open sans,noto sans sc,noto sans tc,noto sans jp,noto sans kr" font-size="10" text-anchor="start" x="334" y="-445.1">list of concavities</text></g><g id="edge1"><path d=" M 333 -491.378 C 333 -486.329 333 -480.723 333 -475.234" stroke="#000000" fill="none"/><path d=" M 336.5 -474.999 L 333 -465 L 329.5 -475 L 336.5 -474.999 Z" stroke="#000000" fill="#000000"/></g><g id="node3"><path d=" M 360 -401.6 L 306 -401.6 L 306 -365.6 L 360 -365.6 L 360 -401.6 Z" stroke="#000000" fill="url(#g-processvyxolq5to)"/><text fill="#000000" font-family="noto mono" font-size="10" text-anchor="start" x="315" y="-381.1">v=L[1]</text></g><g id="edge2"><path d=" M 333 -428.378 C 333 -423.329 333 -417.723 333 -412.234" stroke="#000000" fill="none"/><path d=" M 336.5 -411.999 L 333 -402 L 329.5 -412 L 336.5 -411.999 Z" stroke="#000000" fill="#000000"/></g><g id="node4"><ellipse cx="333" cy="-336.8" rx="1.8" ry="1.8" stroke="#000000" fill="#000000"/><text fill="#000000" font-family="open sans,noto sans sc,noto sans tc,noto sans jp,noto sans kr" font-weight="700" font-size="10" text-anchor="start" x="329.2" y="-342.6"></text></g><g id="edge3"><path d=" M 333 -365.372 C 333 -355.106 333 -343.442 333 -338.83" stroke="#000000" fill="none"/></g><g id="node5"><path d=" M 238 -308 L 184.94 -290 L 238 -272 L 291.06 -290 L 238 -308 Z" stroke="#000000" fill="url(#g-decisionvyxolq5to)"/><text fill="#000000" font-family="noto mono" font-size="10" text-anchor="start" x="214" y="-287.5">v&lt;L[end]</text></g><g id="edge9"><path d=" M 331.351 -335.988 C 323.956 -332.344 293.148 -317.168 268.921 -305.233" stroke="#000000" fill="none"/><path d=" M 270.208 -301.965 L 259.691 -300.686 L 267.115 -308.244 L 270.208 -301.965 Z" stroke="#000000" fill="#000000"/></g><g id="node6"><path d=" M 112 -235 L 65.2602 -217 L 112 -199 L 158.74 -217 L 112 -235 Z" stroke="#000000" fill="url(#g-decisionvyxolq5to)"/><text fill="#000000" font-family="open sans,noto sans sc,noto sans tc,noto sans jp,noto sans kr" font-size="10" text-anchor="start" x="92" y="-214.5">v fits in c</text></g><g id="edge4"><path d=" M 218.312 -278.594 C 197.171 -266.345 163.416 -246.789 139.623 -233.004" stroke="#000000" fill="none"/><path d=" M 141.135 -229.835 L 130.727 -227.85 L 137.626 -235.892 L 141.135 -229.835 Z" stroke="#000000" fill="#000000"/><text fill="#000000" font-family="open sans,noto sans sc,noto sans tc,noto sans jp,noto sans kr" font-weight="700" font-size="10" text-anchor="start" x="183" y="-252">True </text><path d=" M 211 -248 L 164.159 -248" stroke="#000000" fill="none"/></g><g id="node11"><ellipse cx="251" cy="-217" rx="27" ry="18" stroke="#000000" fill="url(#g-terminatorvyxolq5to)"/><text fill="#000000" font-family="open sans,noto sans sc,noto sans tc,noto sans jp,noto sans kr" font-size="10" text-anchor="start" x="238.5" y="-214.5">Done</text></g><g id="edge12"><path d=" M 241.081 -272.7 C 242.554 -264.429 244.354 -254.319 246.015 -244.994" stroke="#000000" fill="none"/><path d=" M 249.498 -245.397 L 247.806 -234.938 L 242.606 -244.17 L 249.498 -245.397 Z" stroke="#000000" fill="#000000"/><text fill="#000000" font-family="open sans,noto sans sc,noto sans tc,noto sans jp,noto sans kr" font-weight="700" font-size="10" text-anchor="start" x="246" y="-252">False </text><path d=" M 276 -248 L 245.386 -248" stroke="#000000" fill="none"/></g><g id="node7"><path d=" M 64 -162 L 0 -162 L 0 -126 L 64 -126 L 64 -162 Z" stroke="#000000" fill="url(#g-processvyxolq5to)"/><text fill="#000000" font-family="open sans,noto sans sc,noto sans tc,noto sans jp,noto sans kr" font-size="10" text-anchor="start" x="7" y="-141.5">Stack v in c</text></g><g id="edge5"><path d=" M 91.0198 -206.865 C 81.2283 -201.51 69.8178 -194.319 61 -186 C 56.1782 -181.451 51.698 -175.973 47.7715 -170.499" stroke="#000000" fill="none"/><path d=" M 50.5674 -168.384 L 42.0875 -162.033 L 44.7557 -172.286 L 50.5674 -168.384 Z" stroke="#000000" fill="#000000"/><text fill="#000000" font-family="open sans,noto sans sc,noto sans tc,noto sans jp,noto sans kr" font-weight="700" font-size="10" text-anchor="start" x="61" y="-179">True </text><path d=" M 89 -175 L 50.8169 -175" stroke="#000000" fill="none"/></g><g id="node8"><path d=" M 291 -162 L 129 -162 L 129 -126 L 291 -126 L 291 -162 Z" stroke="#000000" fill="url(#g-processvyxolq5to)"/><text fill="#000000" font-family="open sans,noto sans sc,noto sans tc,noto sans jp,noto sans kr" font-size="10" text-anchor="start" x="136" y="-141.5">Stack in concavity for Edge+Vert</text></g><g id="edge6"><path d=" M 128.183 -204.946 C 141.516 -195.014 160.848 -180.613 177.373 -168.304" stroke="#000000" fill="none"/><path d=" M 179.784 -170.873 L 185.712 -162.092 L 175.602 -165.259 L 179.784 -170.873 Z" stroke="#000000" fill="#000000"/><text fill="#000000" font-family="open sans,noto sans sc,noto sans tc,noto sans jp,noto sans kr" font-weight="700" font-size="10" text-anchor="start" x="167" y="-179">False </text><path d=" M 197 -175 L 167.84 -175" stroke="#000000" fill="none"/></g><g id="node9"><path d=" M 238 -99 L 182 -99 L 182 -63 L 238 -63 L 238 -99 Z" stroke="#000000" fill="url(#g-processvyxolq5to)"/><text fill="#000000" font-family="open sans,noto sans sc,noto sans tc,noto sans jp,noto sans kr" font-size="10" text-anchor="start" x="189" y="-78.5">update C</text></g><g id="edge7"><path d=" M 64.2345 -132.591 C 94.65 -121.826 140.246 -105.688 172.326 -94.3341" stroke="#000000" fill="none"/><path d=" M 173.557 -97.6112 L 181.816 -90.9752 L 171.221 -91.0123 L 173.557 -97.6112 Z" stroke="#000000" fill="#000000"/></g><g id="edge8"><path d=" M 210 -125.778 C 210 -120.729 210 -115.123 210 -109.634" stroke="#000000" fill="none"/><path d=" M 213.5 -109.399 L 210 -99.3995 L 206.5 -109.4 L 213.5 -109.399 Z" stroke="#000000" fill="#000000"/></g><g id="node10"><path d=" M 353 -36 L 299 -36 L 299 -0 L 353 -0 L 353 -36 Z" stroke="#000000" fill="url(#g-processvyxolq5to)"/><text fill="#000000" font-family="noto mono" font-size="10" text-anchor="start" x="317" y="-15.5">v++</text></g><g id="edge10"><path d=" M 238.08 -65.7495 C 253.695 -57.2691 273.294 -46.6249 290.022 -37.5396" stroke="#000000" fill="none"/><path d=" M 291.86 -40.5246 L 298.977 -32.6763 L 288.519 -34.3733 L 291.86 -40.5246 Z" stroke="#000000" fill="#000000"/></g><g id="edge11"><path d=" M 353.083 -31.7444 C 370.158 -42.5335 389 -59.3449 389 -81 C 389 -290 389 -290 389 -290 C 389 -313.02 360.793 -326.938 344.417 -333.078" stroke="#000000" fill="none"/><path d=" M 343.233 -329.784 L 334.863 -336.28 L 345.457 -336.421 L 343.233 -329.784 Z" stroke="#000000" fill="#000000"/></g></g></svg>