<svg version="1.1" width="530.667" height="441.333" viewBox="0 0 397.57 331" xmlns="http://www.w3.org/2000/svg" xmlns:xlink="http://www.w3.org/1999/xlink" overflow="hidden"><defs><linearGradient x1="0%" y1="0%" x2="100%" y2="0%" spreadMethod="pad" id="g-terminatorgvoruvx1c"><stop offset="0" stop-color="#FF8787" stop-opacity="1"/><stop offset="1" stop-color="#FFB9B9" stop-opacity="1"/></linearGradient><linearGradient x1="0%" y1="0%" x2="100%" y2="0%" spreadMethod="pad" id="g-decisiongvoruvx1c"><stop offset="0" stop-color="#FFD287" stop-opacity="1"/><stop offset="1" stop-color="#FFFFB9" stop-opacity="1"/></linearGradient><linearGradient x1="0%" y1="0%" x2="100%" y2="0%" spreadMethod="pad" id="g-processgvoruvx1c"><stop offset="0" stop-color="#99FF99" stop-opacity="1"/><stop offset="1" stop-color="#CBFFCB" stop-opacity="1"/></linearGradient><linearGradient x1="0%" y1="0%" x2="100%" y2="0%" spreadMethod="pad" id="g-defaultgvoruvx1c"><stop offset="0" stop-color="#99FF99" stop-opacity="1"/><stop offset="1" stop-color="#CBFFCB" stop-opacity="1"/></linearGradient><linearGradient x1="0%" y1="0%" x2="100%" y2="0%" spreadMethod="pad" id="g-modulegvoruvx1c"><stop offset="0" stop-color="#77C1E4" stop-opacity="1"/><stop offset="1" stop-color="#A9F3FF" stop-opacity="1"/></linearGradient><linearGradient x1="0%" y1="0%" x2="100%" y2="0%" spreadMethod="pad" id="g-dataiogvoruvx1c"><stop offset="0" stop-color="#BEBEBE" stop-opacity="1"/><stop offset="1" stop-color="#F0F0F0" stop-opacity="1"/></linearGradient><linearGradient x1="0%" y1="0%" x2="100%" y2="0%" spreadMethod="pad" id="g-preparationgvoruvx1c"><stop offset="0" stop-color="#BEBEBE" stop-opacity="1"/><stop offset="1" stop-color="#F0F0F0" stop-opacity="1"/></linearGradient><linearGradient x1="0%" y1="0%" x2="100%" y2="0%" spreadMethod="pad" id="g-commentgvoruvx1c"><stop offset="0" stop-color="#F5F588" stop-opacity="1"/><stop offset="1" stop-color="#FFFFBA" stop-opacity="1"/></linearGradient><linearGradient x1="0%" y1="0%" x2="100%" y2="0%" spreadMethod="pad" id="g-manualgvoruvx1c"><stop offset="0" stop-color="#9E78FF" stop-opacity="1"/><stop offset="1" stop-color="#D0AAFF" stop-opacity="1"/></linearGradient></defs><g id="flowgvoruvx1c" transform="matrix(1,0,0,1,4,322)"><g id="node1"><ellipse cx="91.5745" cy="-300" rx="67.2153" ry="18" stroke="#000000" fill="url(#g-terminatorgvoruvx1c)"/><text fill="#000000" font-family="open sans,noto sans sc,noto sans tc,noto sans jp,noto sans kr" font-size="10" text-anchor="start" x="42.5745" y="-297.5">SubSet of Objects {C}</text></g><g id="node2"><path d=" M 91.5745 -255 L -0.074524 -237 L 91.5745 -219 L 183.223 -237 L 91.5745 -255 Z" stroke="#000000" fill="url(#g-decisiongvoruvx1c)"/><text fill="#000000" font-family="open sans,noto sans sc,noto sans tc,noto sans jp,noto sans kr" font-size="10" text-anchor="start" x="44.5745" y="-234.5">&lt;4 external contacts</text></g><g id="edge1"><path d=" M 91.5745 -281.778 C 91.5745 -276.729 91.5745 -271.123 91.5745 -265.634" stroke="#000000" fill="none"/><path d=" M 95.0746 -265.399 L 91.5745 -255.4 L 88.0746 -265.4 L 95.0746 -265.399 Z" stroke="#000000" fill="#000000"/></g><g id="node3"><ellipse cx="97.5745" cy="-18" rx="40.7358" ry="18" stroke="#000000" fill="url(#g-terminatorgvoruvx1c)"/><text fill="#000000" font-family="open sans,noto sans sc,noto sans tc,noto sans jp,noto sans kr" font-size="10" text-anchor="start" x="71.0745" y="-15.5">Add fingers</text></g><g id="edge2"><path d=" M 92.0655 -219.078 C 93.1071 -181.06 95.5452 -92.0698 96.7992 -46.2963" stroke="#000000" fill="none"/><path d=" M 100.301 -46.2615 L 97.0767 -36.1693 L 93.304 -46.0697 L 100.301 -46.2615 Z" stroke="#000000" fill="#000000"/><text fill="#000000" font-family="open sans,noto sans sc,noto sans tc,noto sans jp,noto sans kr" font-weight="700" font-size="10" text-anchor="start" x="95.5745" y="-126">True </text><path d=" M 123.574 -122 L 94.7316 -122" stroke="#000000" fill="none"/></g><g id="node4"><path d=" M 282.574 -182 L 230.18 -164 L 282.574 -146 L 334.969 -164 L 282.574 -182 Z" stroke="#000000" fill="url(#g-decisiongvoruvx1c)"/><text fill="#000000" font-family="open sans,noto sans sc,noto sans tc,noto sans jp,noto sans kr" font-size="10" text-anchor="start" x="259.074" y="-161.5">GQM = 0 ?</text></g><g id="edge3"><path d=" M 122.687 -225.109 C 157.085 -211.962 212.343 -190.842 248.051 -177.195" stroke="#000000" fill="none"/><path d=" M 249.479 -180.396 L 257.571 -173.556 L 246.98 -173.857 L 249.479 -180.396 Z" stroke="#000000" fill="#000000"/><text fill="#000000" font-family="open sans,noto sans sc,noto sans tc,noto sans jp,noto sans kr" font-weight="700" font-size="10" text-anchor="start" x="198.574" y="-199">False </text><path d=" M 228.574 -195 L 201.763 -195" stroke="#000000" fill="none"/></g><g id="node5"><path d=" M 282.574 -109 L 200.24 -91 L 282.574 -73 L 364.909 -91 L 282.574 -109 Z" stroke="#000000" fill="url(#g-decisiongvoruvx1c)"/><text fill="#000000" font-family="open sans,noto sans sc,noto sans tc,noto sans jp,noto sans kr" font-size="10" text-anchor="start" x="241.074" y="-88.5">can move a finger</text></g><g id="edge4"><path d=" M 282.574 -145.955 C 282.574 -137.883 282.574 -128.176 282.574 -119.182" stroke="#000000" fill="none"/><path d=" M 286.075 -119.09 L 282.574 -109.09 L 279.075 -119.09 L 286.075 -119.09 Z" stroke="#000000" fill="#000000"/><text fill="#000000" font-family="open sans,noto sans sc,noto sans tc,noto sans jp,noto sans kr" font-weight="700" font-size="10" text-anchor="start" x="282.574" y="-126">True </text><path d=" M 310.574 -122 L 282.574 -122" stroke="#000000" fill="none"/></g><g id="edge6"><path d=" M 252.851 -79.2713 C 221.575 -66.9299 172.169 -47.4346 137.506 -33.7569" stroke="#000000" fill="none"/><path d=" M 138.734 -30.4789 L 128.148 -30.0641 L 136.165 -36.9903 L 138.734 -30.4789 Z" stroke="#000000" fill="#000000"/><text fill="#000000" font-family="open sans,noto sans sc,noto sans tc,noto sans jp,noto sans kr" font-weight="700" font-size="10" text-anchor="start" x="201.574" y="-53">False </text><path d=" M 231.574 -49 L 177.143 -49" stroke="#000000" fill="none"/></g><g id="node6"><ellipse cx="294.574" cy="-18" rx="86.5669" ry="18" stroke="#000000" fill="url(#g-terminatorgvoruvx1c)"/><text fill="#000000" font-family="open sans,noto sans sc,noto sans tc,noto sans jp,noto sans kr" font-size="10" text-anchor="start" x="229.074" y="-15.5">move finger to ensure grasp</text></g><g id="edge5"><path d=" M 285.479 -73.3287 C 286.83 -65.1123 288.469 -55.1429 289.981 -45.9424" stroke="#000000" fill="none"/><path d=" M 293.444 -46.451 L 291.613 -36.0157 L 286.537 -45.3155 L 293.444 -46.451 Z" stroke="#000000" fill="#000000"/><text fill="#000000" font-family="open sans,noto sans sc,noto sans tc,noto sans jp,noto sans kr" font-weight="700" font-size="10" text-anchor="start" x="289.574" y="-53">True </text><path d=" M 317.574 -49 L 289.409 -49" stroke="#000000" fill="none"/></g><g id="node7"><path d=" M 378.574 -255 L 248.574 -255 L 248.574 -219 L 384.574 -219 L 384.574 -249 L 378.574 -255 Z" stroke="#000000" fill="url(#g-commentgvoruvx1c)"/><path d=" M 378.574 -255 L 378.574 -249" stroke="#000000" fill="none"/><path d=" M 384.574 -249 L 378.574 -249" stroke="#000000" fill="none"/><text fill="#000000" font-family="open sans,noto sans sc,noto sans tc,noto sans jp,noto sans kr" font-size="10" text-anchor="start" x="252.574" y="-240">Find contact intersection if</text><text fill="#000000" font-family="open sans,noto sans sc,noto sans tc,noto sans jp,noto sans kr" font-size="10" text-anchor="start" x="301.074" y="-229">exists</text></g><g id="edge7"><path d=" M 308.17 -218.955 C 302.585 -206.964 295.321 -191.367 289.959 -179.854" stroke="#000000" stroke-dasharray="5 2" fill="none"/></g></g></svg>