<svg version="1.1" width="774.667" height="650.667" viewBox="0 0 581.28 487.6" xmlns="http://www.w3.org/2000/svg" xmlns:xlink="http://www.w3.org/1999/xlink" overflow="hidden"><defs><linearGradient x1="0%" y1="0%" x2="100%" y2="0%" spreadMethod="pad" id="g-terminatorqo2acvkai"><stop offset="0" stop-color="#FF8787" stop-opacity="1"/><stop offset="1" stop-color="#FFB9B9" stop-opacity="1"/></linearGradient><linearGradient x1="0%" y1="0%" x2="100%" y2="0%" spreadMethod="pad" id="g-decisionqo2acvkai"><stop offset="0" stop-color="#FFD287" stop-opacity="1"/><stop offset="1" stop-color="#FFFFB9" stop-opacity="1"/></linearGradient><linearGradient x1="0%" y1="0%" x2="100%" y2="0%" spreadMethod="pad" id="g-processqo2acvkai"><stop offset="0" stop-color="#99FF99" stop-opacity="1"/><stop offset="1" stop-color="#CBFFCB" stop-opacity="1"/></linearGradient><linearGradient x1="0%" y1="0%" x2="100%" y2="0%" spreadMethod="pad" id="g-defaultqo2acvkai"><stop offset="0" stop-color="#99FF99" stop-opacity="1"/><stop offset="1" stop-color="#CBFFCB" stop-opacity="1"/></linearGradient><linearGradient x1="0%" y1="0%" x2="100%" y2="0%" spreadMethod="pad" id="g-moduleqo2acvkai"><stop offset="0" stop-color="#77C1E4" stop-opacity="1"/><stop offset="1" stop-color="#A9F3FF" stop-opacity="1"/></linearGradient><linearGradient x1="0%" y1="0%" x2="100%" y2="0%" spreadMethod="pad" id="g-dataioqo2acvkai"><stop offset="0" stop-color="#BEBEBE" stop-opacity="1"/><stop offset="1" stop-color="#F0F0F0" stop-opacity="1"/></linearGradient><linearGradient x1="0%" y1="0%" x2="100%" y2="0%" spreadMethod="pad" id="g-preparationqo2acvkai"><stop offset="0" stop-color="#BEBEBE" stop-opacity="1"/><stop offset="1" stop-color="#F0F0F0" stop-opacity="1"/></linearGradient><linearGradient x1="0%" y1="0%" x2="100%" y2="0%" spreadMethod="pad" id="g-commentqo2acvkai"><stop offset="0" stop-color="#F5F588" stop-opacity="1"/><stop offset="1" stop-color="#FFFFBA" stop-opacity="1"/></linearGradient><linearGradient x1="0%" y1="0%" x2="100%" y2="0%" spreadMethod="pad" id="g-manualqo2acvkai"><stop offset="0" stop-color="#9E78FF" stop-opacity="1"/><stop offset="1" stop-color="#D0AAFF" stop-opacity="1"/></linearGradient></defs><g id="flowqo2acvkai" transform="matrix(1,0,0,1,4,478.6)"><g id="node1"><ellipse cx="500" cy="-456.6" rx="68.0705" ry="18" stroke="#000000" fill="url(#g-terminatorqo2acvkai)"/><text fill="#000000" font-family="open sans,noto sans sc,noto sans tc,noto sans jp,noto sans kr" font-size="10" text-anchor="start" x="450" y="-454.1">Polygon P, 2 fingers C</text></g><g id="node2"><path d=" M 547 -411.6 L 453 -411.6 L 453 -375.6 L 547 -375.6 L 547 -411.6 Z" stroke="#000000" fill="url(#g-processqo2acvkai)"/><text fill="#000000" font-family="open sans,noto sans sc,noto sans tc,noto sans jp,noto sans kr" font-size="10" text-anchor="start" x="460" y="-391.1">e = first edge of P</text></g><g id="edge1"><path d=" M 500 -438.378 C 500 -433.329 500 -427.723 500 -422.234" stroke="#000000" fill="none"/><path d=" M 503.5 -421.999 L 500 -412 L 496.5 -422 L 503.5 -421.999 Z" stroke="#000000" fill="#000000"/></g><g id="node3"><ellipse cx="500" cy="-346.8" rx="1.8" ry="1.8" stroke="#000000" fill="#000000"/><text fill="#000000" font-family="open sans,noto sans sc,noto sans tc,noto sans jp,noto sans kr" font-weight="700" font-size="10" text-anchor="start" x="496.2" y="-352.6"></text></g><g id="edge2"><path d=" M 500 -375.372 C 500 -365.106 500 -353.442 500 -348.83" stroke="#000000" fill="none"/></g><g id="node4"><path d=" M 347 -318 L 285.291 -300 L 347 -282 L 408.709 -300 L 347 -318 Z" stroke="#000000" fill="url(#g-decisionqo2acvkai)"/><text fill="#000000" font-family="open sans,noto sans sc,noto sans tc,noto sans jp,noto sans kr" font-size="10" text-anchor="start" x="318" y="-297.5">e &lt; last edge</text></g><g id="edge6"><path d=" M 497.837 -346.138 C 485.925 -342.495 427.385 -324.589 386.84 -312.186" stroke="#000000" fill="none"/><path d=" M 387.8 -308.82 L 377.214 -309.242 L 385.752 -315.514 L 387.8 -308.82 Z" stroke="#000000" fill="#000000"/></g><g id="node5"><path d=" M 314 -245 L 206.716 -227 L 314 -209 L 421.284 -227 L 314 -245 Z" stroke="#000000" fill="url(#g-decisionqo2acvkai)"/><text fill="#000000" font-family="open sans,noto sans sc,noto sans tc,noto sans jp,noto sans kr" font-size="10" text-anchor="start" x="257.5" y="-224.5">e normal + C span origin</text></g><g id="edge3"><path d=" M 339.676 -283.799 C 335.618 -274.822 330.475 -263.444 325.859 -253.233" stroke="#000000" fill="none"/><path d=" M 328.956 -251.587 L 321.647 -243.917 L 322.577 -254.471 L 328.956 -251.587 Z" stroke="#000000" fill="#000000"/><text fill="#000000" font-family="open sans,noto sans sc,noto sans tc,noto sans jp,noto sans kr" font-weight="700" font-size="10" text-anchor="start" x="333" y="-262">True </text><path d=" M 361 -258 L 327.611 -258" stroke="#000000" fill="none"/></g><g id="node6"><path d=" M 149 -172 L 8.11639 -154 L 149 -136 L 289.884 -154 L 149 -172 Z" stroke="#000000" fill="url(#g-decisionqo2acvkai)"/><text fill="#000000" font-family="open sans,noto sans sc,noto sans tc,noto sans jp,noto sans kr" font-size="10" text-anchor="start" x="72.5" y="-151.5">w of e can complete convex cone</text></g><g id="edge4"><path d=" M 284.501 -213.949 C 258.154 -202.292 219.299 -185.102 189.945 -172.115" stroke="#000000" fill="none"/><path d=" M 191.337 -168.904 L 180.775 -168.058 L 188.504 -175.305 L 191.337 -168.904 Z" stroke="#000000" fill="#000000"/><text fill="#000000" font-family="open sans,noto sans sc,noto sans tc,noto sans jp,noto sans kr" font-weight="700" font-size="10" text-anchor="start" x="242" y="-189">True </text><path d=" M 270 -185 L 219.576 -185" stroke="#000000" fill="none"/></g><g id="node8"><path d=" M 362 -36 L 286 -36 L 286 -0 L 362 -0 L 362 -36 Z" stroke="#000000" fill="url(#g-processqo2acvkai)"/><text fill="#000000" font-family="open sans,noto sans sc,noto sans tc,noto sans jp,noto sans kr" font-size="10" text-anchor="start" x="293" y="-15.5">e = next edge</text></g><g id="edge9"><path d=" M 316.84 -209.198 C 318.493 -198.446 320.533 -184.458 322 -172 C 328.365 -117.931 330.553 -104.387 333 -50 C 333.058 -48.7028 333.037 -47.3865 332.949 -46.0643" stroke="#000000" fill="none"/><path d=" M 336.367 -45.2911 L 331.207 -36.0381 L 329.471 -46.4898 L 336.367 -45.2911 Z" stroke="#000000" fill="#000000"/><text fill="#000000" font-family="open sans,noto sans sc,noto sans tc,noto sans jp,noto sans kr" font-weight="700" font-size="10" text-anchor="start" x="329" y="-116">False </text><path d=" M 359 -112 L 328.969 -112" stroke="#000000" fill="none"/></g><g id="node7"><path d=" M 130 -99 L 0 -99 L 0 -63 L 130 -63 L 130 -99 Z" stroke="#000000" fill="url(#g-processqo2acvkai)"/><text fill="#000000" font-family="open sans,noto sans sc,noto sans tc,noto sans jp,noto sans kr" font-size="10" text-anchor="start" x="7" y="-78.5">add corresponding figers</text></g><g id="edge5"><path d=" M 130.773 -138.16 C 119.928 -128.735 105.929 -116.569 93.6355 -105.886" stroke="#000000" fill="none"/><path d=" M 95.6973 -103.04 L 85.8534 -99.1226 L 91.1056 -108.324 L 95.6973 -103.04 Z" stroke="#000000" fill="#000000"/><text fill="#000000" font-family="open sans,noto sans sc,noto sans tc,noto sans jp,noto sans kr" font-weight="700" font-size="10" text-anchor="start" x="113" y="-116">True </text><path d=" M 141 -112 L 100.698 -112" stroke="#000000" fill="none"/></g><g id="edge8"><path d=" M 169.075 -138.399 C 199.246 -114.952 256.554 -70.4149 292.378 -42.5746" stroke="#000000" fill="none"/><path d=" M 294.807 -45.1202 L 300.555 -36.2203 L 290.511 -39.593 L 294.807 -45.1202 Z" stroke="#000000" fill="#000000"/><text fill="#000000" font-family="open sans,noto sans sc,noto sans tc,noto sans jp,noto sans kr" font-weight="700" font-size="10" text-anchor="start" x="266" y="-79.5">False </text><path d=" M 296 -75.5 L 249.794 -75.5" stroke="#000000" fill="none"/></g><g id="edge7"><path d=" M 130.022 -65.1838 C 175.428 -54.1392 235.031 -39.641 276.124 -29.6456" stroke="#000000" fill="none"/><path d=" M 277.003 -33.0338 L 285.892 -27.2694 L 275.348 -26.2322 L 277.003 -33.0338 Z" stroke="#000000" fill="#000000"/></g><g id="edge10"><path d=" M 362.061 -22.4425 C 418.809 -30.1421 519 -48.358 519 -81 C 519 -300 519 -300 519 -300 C 519 -313.318 512.313 -327.306 506.873 -336.481" stroke="#000000" fill="none"/><path d=" M 503.773 -334.827 L 501.247 -345.117 L 509.638 -338.649 L 503.773 -334.827 Z" stroke="#000000" fill="#000000"/></g></g></svg>