<svg version="1.1" width="800" height="624" viewBox="0 0 600 467.51" xmlns="http://www.w3.org/2000/svg" xmlns:xlink="http://www.w3.org/1999/xlink" overflow="hidden"><defs><linearGradient x1="0%" y1="0%" x2="100%" y2="0%" spreadMethod="pad" id="g-terminatorpwqj3l1ir"><stop offset="0" stop-color="#FF8787" stop-opacity="1"/><stop offset="1" stop-color="#FFB9B9" stop-opacity="1"/></linearGradient><linearGradient x1="0%" y1="0%" x2="100%" y2="0%" spreadMethod="pad" id="g-decisionpwqj3l1ir"><stop offset="0" stop-color="#FFD287" stop-opacity="1"/><stop offset="1" stop-color="#FFFFB9" stop-opacity="1"/></linearGradient><linearGradient x1="0%" y1="0%" x2="100%" y2="0%" spreadMethod="pad" id="g-processpwqj3l1ir"><stop offset="0" stop-color="#99FF99" stop-opacity="1"/><stop offset="1" stop-color="#CBFFCB" stop-opacity="1"/></linearGradient><linearGradient x1="0%" y1="0%" x2="100%" y2="0%" spreadMethod="pad" id="g-defaultpwqj3l1ir"><stop offset="0" stop-color="#99FF99" stop-opacity="1"/><stop offset="1" stop-color="#CBFFCB" stop-opacity="1"/></linearGradient><linearGradient x1="0%" y1="0%" x2="100%" y2="0%" spreadMethod="pad" id="g-modulepwqj3l1ir"><stop offset="0" stop-color="#77C1E4" stop-opacity="1"/><stop offset="1" stop-color="#A9F3FF" stop-opacity="1"/></linearGradient><linearGradient x1="0%" y1="0%" x2="100%" y2="0%" spreadMethod="pad" id="g-dataiopwqj3l1ir"><stop offset="0" stop-color="#BEBEBE" stop-opacity="1"/><stop offset="1" stop-color="#F0F0F0" stop-opacity="1"/></linearGradient><linearGradient x1="0%" y1="0%" x2="100%" y2="0%" spreadMethod="pad" id="g-preparationpwqj3l1ir"><stop offset="0" stop-color="#BEBEBE" stop-opacity="1"/><stop offset="1" stop-color="#F0F0F0" stop-opacity="1"/></linearGradient><linearGradient x1="0%" y1="0%" x2="100%" y2="0%" spreadMethod="pad" id="g-commentpwqj3l1ir"><stop offset="0" stop-color="#F5F588" stop-opacity="1"/><stop offset="1" stop-color="#FFFFBA" stop-opacity="1"/></linearGradient><linearGradient x1="0%" y1="0%" x2="100%" y2="0%" spreadMethod="pad" id="g-manualpwqj3l1ir"><stop offset="0" stop-color="#9E78FF" stop-opacity="1"/><stop offset="1" stop-color="#D0AAFF" stop-opacity="1"/></linearGradient></defs><g id="flowpwqj3l1ir" transform="matrix(0.681558,0,0,0.681558,2.72623,459.779)"><g id="node1"><ellipse cx="809" cy="-652.6" rx="52.2822" ry="18" stroke="#000000" fill="url(#g-terminatorpwqj3l1ir)"/><text fill="#000000" font-family="open sans,noto sans sc,noto sans tc,noto sans jp,noto sans kr" font-size="10" text-anchor="start" x="772.5" y="-650.1">Polygons P1, P2</text></g><g id="node2"><path d=" M 862.5 -607.6 L 755.5 -607.6 L 755.5 -571.6 L 862.5 -571.6 L 862.5 -607.6 Z" stroke="#000000" fill="url(#g-processpwqj3l1ir)"/><text fill="#000000" font-family="open sans,noto sans sc,noto sans tc,noto sans jp,noto sans kr" font-size="10" text-anchor="start" x="762.5" y="-587.1">p = first vertex of P1</text></g><g id="edge1"><path d=" M 809 -634.378 C 809 -629.329 809 -623.723 809 -618.234" stroke="#000000" fill="none"/><path d=" M 812.5 -617.999 L 809 -608 L 805.5 -618 L 812.5 -617.999 Z" stroke="#000000" fill="#000000"/></g><g id="node3"><ellipse cx="809" cy="-542.8" rx="1.8" ry="1.8" stroke="#000000" fill="#000000"/><text fill="#000000" font-family="open sans,noto sans sc,noto sans tc,noto sans jp,noto sans kr" font-weight="700" font-size="10" text-anchor="start" x="805.2" y="-548.6"></text></g><g id="edge2"><path d=" M 809 -571.372 C 809 -561.106 809 -549.442 809 -544.83" stroke="#000000" fill="none"/></g><g id="node4"><path d=" M 714 -514 L 660.94 -496 L 714 -478 L 767.06 -496 L 714 -514 Z" stroke="#000000" fill="url(#g-decisionpwqj3l1ir)"/><text fill="#000000" font-family="open sans,noto sans sc,noto sans tc,noto sans jp,noto sans kr" font-size="10" text-anchor="start" x="690" y="-493.5">last vertex</text></g><g id="edge10"><path d=" M 807.351 -541.988 C 799.956 -538.344 769.148 -523.168 744.921 -511.233" stroke="#000000" fill="none"/><path d=" M 746.208 -507.965 L 735.691 -506.686 L 743.115 -514.244 L 746.208 -507.965 Z" stroke="#000000" fill="#000000"/></g><g id="node5"><path d=" M 556 -441 L 463.686 -423 L 556 -405 L 648.314 -423 L 556 -441 Z" stroke="#000000" fill="url(#g-decisionpwqj3l1ir)"/><text fill="#000000" font-family="open sans,noto sans sc,noto sans tc,noto sans jp,noto sans kr" font-size="10" text-anchor="start" x="508.5" y="-420.5">p on boundary of P2</text></g><g id="edge3"><path d=" M 691.362 -485.541 C 665.723 -473.695 623.556 -454.212 593.091 -440.137" stroke="#000000" fill="none"/><path d=" M 594.193 -436.791 L 583.647 -435.774 L 591.257 -443.145 L 594.193 -436.791 Z" stroke="#000000" fill="#000000"/><text fill="#000000" font-family="open sans,noto sans sc,noto sans tc,noto sans jp,noto sans kr" font-weight="700" font-size="10" text-anchor="start" x="645" y="-458">False </text><path d=" M 675 -454 L 624.219 -454" stroke="#000000" fill="none"/></g><g id="node13"><ellipse cx="740" cy="-423" rx="27" ry="18" stroke="#000000" fill="url(#g-terminatorpwqj3l1ir)"/><text fill="#000000" font-family="open sans,noto sans sc,noto sans tc,noto sans jp,noto sans kr" font-size="10" text-anchor="start" x="730" y="-420.5">END</text></g><g id="edge17"><path d=" M 719.77 -479.799 C 722.867 -471.104 726.767 -460.156 730.313 -450.197" stroke="#000000" fill="none"/><path d=" M 733.642 -451.283 L 733.7 -440.689 L 727.048 -448.935 L 733.642 -451.283 Z" stroke="#000000" fill="#000000"/><text fill="#000000" font-family="open sans,noto sans sc,noto sans tc,noto sans jp,noto sans kr" font-weight="700" font-size="10" text-anchor="start" x="729" y="-458">True </text><path d=" M 757 -454 L 728.969 -454" stroke="#000000" fill="none"/></g><g id="node6"><path d=" M 556 -368 L 489.301 -350 L 556 -332 L 622.699 -350 L 556 -368 Z" stroke="#000000" fill="url(#g-decisionpwqj3l1ir)"/><text fill="#000000" font-family="open sans,noto sans sc,noto sans tc,noto sans jp,noto sans kr" font-size="10" text-anchor="start" x="524" y="-347.5">p vertex of P2</text></g><g id="edge4"><path d=" M 556 -404.955 C 556 -396.883 556 -387.176 556 -378.182" stroke="#000000" fill="none"/><path d=" M 559.5 -378.09 L 556 -368.09 L 552.5 -378.09 L 559.5 -378.09 Z" stroke="#000000" fill="#000000"/><text fill="#000000" font-family="open sans,noto sans sc,noto sans tc,noto sans jp,noto sans kr" font-weight="700" font-size="10" text-anchor="start" x="556" y="-385">True </text><path d=" M 584 -381 L 556 -381" stroke="#000000" fill="none"/></g><g id="node12"><path d=" M 574.5 -36 L 491.5 -36 L 491.5 -0 L 574.5 -0 L 574.5 -36 Z" stroke="#000000" fill="url(#g-processpwqj3l1ir)"/><text fill="#000000" font-family="open sans,noto sans sc,noto sans tc,noto sans jp,noto sans kr" font-size="10" text-anchor="start" x="498.5" y="-15.5">p = next vertex</text></g><g id="edge15"><path d=" M 599.848 -413.482 C 650.807 -401.125 728 -377.817 728 -350 C 728 -350 728 -350 728 -81 C 728 -50.8781 642.683 -33.0408 584.915 -24.4157" stroke="#000000" fill="none"/><path d=" M 585.23 -20.9249 L 574.832 -22.9611 L 584.23 -27.8532 L 585.23 -20.9249 Z" stroke="#000000" fill="#000000"/><text fill="#000000" font-family="open sans,noto sans sc,noto sans tc,noto sans jp,noto sans kr" font-weight="700" font-size="10" text-anchor="start" x="728" y="-226.5">False </text><path d=" M 758 -222.5 L 728 -222.5" stroke="#000000" fill="none"/></g><g id="node7"><path d=" M 314 -295 L 236.656 -277 L 314 -259 L 391.344 -277 L 314 -295 Z" stroke="#000000" fill="url(#g-decisionpwqj3l1ir)"/><text fill="#000000" font-family="open sans,noto sans sc,noto sans tc,noto sans jp,noto sans kr" font-size="10" text-anchor="start" x="275.5" y="-274.5">p is inner v of P2</text></g><g id="edge5"><path d=" M 523.806 -340.589 C 503.015 -334.488 475.389 -326.339 451 -319 C 419.526 -309.53 384.048 -298.647 357.083 -290.333" stroke="#000000" fill="none"/><path d=" M 357.778 -286.885 L 347.191 -287.281 L 355.714 -293.574 L 357.778 -286.885 Z" stroke="#000000" fill="#000000"/><text fill="#000000" font-family="open sans,noto sans sc,noto sans tc,noto sans jp,noto sans kr" font-weight="700" font-size="10" text-anchor="start" x="451" y="-312">True </text><path d=" M 479 -308 L 414.563 -308" stroke="#000000" fill="none"/></g><g id="node11"><path d=" M 650.5 -246 L 475.5 -246 L 475.5 -210 L 650.5 -210 L 650.5 -246 Z" stroke="#000000" fill="url(#g-processpwqj3l1ir)"/><text fill="#000000" font-family="open sans,noto sans sc,noto sans tc,noto sans jp,noto sans kr" font-size="10" text-anchor="start" x="482.5" y="-225.5">Add contact at p with normal of P2</text></g><g id="edge9"><path d=" M 557.018 -332.26 C 558.162 -312.316 560.036 -279.662 561.381 -256.209" stroke="#000000" fill="none"/><path d=" M 564.879 -256.344 L 561.958 -246.16 L 557.891 -255.943 L 564.879 -256.344 Z" stroke="#000000" fill="#000000"/><text fill="#000000" font-family="open sans,noto sans sc,noto sans tc,noto sans jp,noto sans kr" font-weight="700" font-size="10" text-anchor="start" x="559" y="-312">False </text><path d=" M 589 -308 L 558.405 -308" stroke="#000000" fill="none"/></g><g id="node8"><path d=" M 172 -148 L 0 -148 L 0 -112 L 172 -112 L 172 -148 Z" stroke="#000000" fill="url(#g-processpwqj3l1ir)"/><text fill="#000000" font-family="open sans,noto sans sc,noto sans tc,noto sans jp,noto sans kr" font-size="10" text-anchor="start" x="7" y="-127.5">Add 2 contacts at p, normals of P2</text></g><g id="edge6"><path d=" M 293.364 -263.695 C 254.77 -238.812 171.196 -184.929 122.755 -153.697" stroke="#000000" fill="none"/><path d=" M 124.439 -150.619 L 114.138 -148.141 L 120.646 -156.502 L 124.439 -150.619 Z" stroke="#000000" fill="#000000"/><text fill="#000000" font-family="open sans,noto sans sc,noto sans tc,noto sans jp,noto sans kr" font-weight="700" font-size="10" text-anchor="start" x="265" y="-226.5">True </text><path d=" M 293 -222.5 L 229.428 -222.5" stroke="#000000" fill="none"/></g><g id="node9"><path d=" M 314 -197 L 236.656 -179 L 314 -161 L 391.344 -179 L 314 -197 Z" stroke="#000000" fill="url(#g-decisionpwqj3l1ir)"/><text fill="#000000" font-family="open sans,noto sans sc,noto sans tc,noto sans jp,noto sans kr" font-size="10" text-anchor="start" x="275.5" y="-176.5">p is inner v of P1</text></g><g id="edge7"><path d=" M 314 -258.567 C 314 -244.103 314 -223.724 314 -207.211" stroke="#000000" fill="none"/><path d=" M 317.5 -207.019 L 314 -197.019 L 310.5 -207.019 L 317.5 -207.019 Z" stroke="#000000" fill="#000000"/><text fill="#000000" font-family="open sans,noto sans sc,noto sans tc,noto sans jp,noto sans kr" font-weight="700" font-size="10" text-anchor="start" x="314" y="-226.5">False </text><path d=" M 344 -222.5 L 314 -222.5" stroke="#000000" fill="none"/></g><g id="edge11"><path d=" M 93.737 -111.879 C 101.486 -96.1338 114.995 -74.1536 134 -63 C 163.353 -45.7731 380.123 -28.6415 481.281 -21.4852" stroke="#000000" fill="none"/><path d=" M 481.552 -24.9749 L 491.282 -20.7836 L 481.062 -17.9921 L 481.552 -24.9749 Z" stroke="#000000" fill="#000000"/></g><g id="node10"><path d=" M 339 -99 L 167 -99 L 167 -63 L 339 -63 L 339 -99 Z" stroke="#000000" fill="url(#g-processpwqj3l1ir)"/><text fill="#000000" font-family="open sans,noto sans sc,noto sans tc,noto sans jp,noto sans kr" font-size="10" text-anchor="start" x="174" y="-78.5">Add 2 contacts at p, normals of P1</text></g><g id="edge8"><path d=" M 304.199 -163.255 C 294.907 -148.326 280.762 -125.601 269.692 -107.817" stroke="#000000" fill="none"/><path d=" M 272.482 -105.676 L 264.226 -99.0354 L 266.539 -109.375 L 272.482 -105.676 Z" stroke="#000000" fill="#000000"/><text fill="#000000" font-family="open sans,noto sans sc,noto sans tc,noto sans jp,noto sans kr" font-weight="700" font-size="10" text-anchor="start" x="295" y="-128.5">True </text><path d=" M 323 -124.5 L 279.586 -124.5" stroke="#000000" fill="none"/></g><g id="edge13"><path d=" M 332.672 -165.273 C 369.87 -137.927 453.643 -76.3404 500.213 -42.1039" stroke="#000000" fill="none"/><path d=" M 502.472 -44.787 L 508.456 -36.0438 L 498.326 -39.1471 L 502.472 -44.787 Z" stroke="#000000" fill="#000000"/><text fill="#000000" font-family="open sans,noto sans sc,noto sans tc,noto sans jp,noto sans kr" font-weight="700" font-size="10" text-anchor="start" x="472" y="-79.5">False </text><path d=" M 502 -75.5 L 453.955 -75.5" stroke="#000000" fill="none"/></g><g id="edge12"><path d=" M 333.237 -62.9467 C 380.861 -52.2314 439.843 -38.9603 481.33 -29.6257" stroke="#000000" fill="none"/><path d=" M 482.232 -33.0105 L 491.219 -27.4006 L 480.695 -26.1812 L 482.232 -33.0105 Z" stroke="#000000" fill="#000000"/></g><g id="edge14"><path d=" M 561.242 -209.875 C 557.971 -177.458 550.334 -107.468 540 -49 C 539.84 -48.0967 539.672 -47.18 539.497 -46.2555" stroke="#000000" fill="none"/><path d=" M 542.89 -45.3827 L 537.433 -36.3014 L 536.036 -46.8037 L 542.89 -45.3827 Z" stroke="#000000" fill="#000000"/></g><g id="edge16"><path d=" M 574.712 -21.6069 C 663.88 -29.8791 865 -51.7763 865 -81 C 865 -496 865 -496 865 -496 C 865 -519.02 836.793 -532.938 820.417 -539.078" stroke="#000000" fill="none"/><path d=" M 819.233 -535.784 L 810.863 -542.28 L 821.457 -542.421 L 819.233 -535.784 Z" stroke="#000000" fill="#000000"/></g></g></svg>