<svg version="1.1" width="800" height="554.667" viewBox="0 0 600 415.74" xmlns="http://www.w3.org/2000/svg" xmlns:xlink="http://www.w3.org/1999/xlink" overflow="hidden"><defs><linearGradient x1="0%" y1="0%" x2="100%" y2="0%" spreadMethod="pad" id="g-terminatorsj71l2ef"><stop offset="0" stop-color="#FF8787" stop-opacity="1"/><stop offset="1" stop-color="#FFB9B9" stop-opacity="1"/></linearGradient><linearGradient x1="0%" y1="0%" x2="100%" y2="0%" spreadMethod="pad" id="g-decisionsj71l2ef"><stop offset="0" stop-color="#FFD287" stop-opacity="1"/><stop offset="1" stop-color="#FFFFB9" stop-opacity="1"/></linearGradient><linearGradient x1="0%" y1="0%" x2="100%" y2="0%" spreadMethod="pad" id="g-processsj71l2ef"><stop offset="0" stop-color="#99FF99" stop-opacity="1"/><stop offset="1" stop-color="#CBFFCB" stop-opacity="1"/></linearGradient><linearGradient x1="0%" y1="0%" x2="100%" y2="0%" spreadMethod="pad" id="g-defaultsj71l2ef"><stop offset="0" stop-color="#99FF99" stop-opacity="1"/><stop offset="1" stop-color="#CBFFCB" stop-opacity="1"/></linearGradient><linearGradient x1="0%" y1="0%" x2="100%" y2="0%" spreadMethod="pad" id="g-modulesj71l2ef"><stop offset="0" stop-color="#77C1E4" stop-opacity="1"/><stop offset="1" stop-color="#A9F3FF" stop-opacity="1"/></linearGradient><linearGradient x1="0%" y1="0%" x2="100%" y2="0%" spreadMethod="pad" id="g-dataiosj71l2ef"><stop offset="0" stop-color="#BEBEBE" stop-opacity="1"/><stop offset="1" stop-color="#F0F0F0" stop-opacity="1"/></linearGradient><linearGradient x1="0%" y1="0%" x2="100%" y2="0%" spreadMethod="pad" id="g-preparationsj71l2ef"><stop offset="0" stop-color="#BEBEBE" stop-opacity="1"/><stop offset="1" stop-color="#F0F0F0" stop-opacity="1"/></linearGradient><linearGradient x1="0%" y1="0%" x2="100%" y2="0%" spreadMethod="pad" id="g-commentsj71l2ef"><stop offset="0" stop-color="#F5F588" stop-opacity="1"/><stop offset="1" stop-color="#FFFFBA" stop-opacity="1"/></linearGradient><linearGradient x1="0%" y1="0%" x2="100%" y2="0%" spreadMethod="pad" id="g-manualsj71l2ef"><stop offset="0" stop-color="#9E78FF" stop-opacity="1"/><stop offset="1" stop-color="#D0AAFF" stop-opacity="1"/></linearGradient></defs><g id="flowsj71l2ef" transform="matrix(0.879527,0,0,0.879527,3.51811,407.221)"><g id="node1"><ellipse cx="186" cy="-441" rx="64.3289" ry="18" stroke="#000000" fill="url(#g-terminatorsj71l2ef)"/><text fill="#000000" font-family="open sans,noto sans sc,noto sans tc,noto sans jp,noto sans kr" font-size="10" text-anchor="start" x="139.5" y="-438.5">Given Set of Objects</text></g><g id="node2"><path d=" M 213 -396 L 159 -396 L 159 -360 L 213 -360 L 213 -396 Z" stroke="#000000" fill="url(#g-processsj71l2ef)"/><text fill="#000000" font-family="open sans,noto sans sc,noto sans tc,noto sans jp,noto sans kr" font-size="10" text-anchor="start" x="182.5" y="-375.5">O</text></g><g id="edge1"><path d=" M 186 -422.778 C 186 -417.729 186 -412.123 186 -406.634" stroke="#000000" fill="none"/><path d=" M 189.5 -406.399 L 186 -396.4 L 182.5 -406.4 L 189.5 -406.399 Z" stroke="#000000" fill="#000000"/></g><g id="node3"><path d=" M 186 -333 L 87.5306 -315 L 186 -297 L 284.469 -315 L 186 -333 Z" stroke="#000000" fill="url(#g-decisionsj71l2ef)"/><text fill="#000000" font-family="open sans,noto sans sc,noto sans tc,noto sans jp,noto sans kr" font-size="10" text-anchor="start" x="135" y="-312.5">Concave vertices exist</text></g><g id="edge2"><path d=" M 186 -359.778 C 186 -354.729 186 -349.123 186 -343.634" stroke="#000000" fill="none"/><path d=" M 189.5 -343.399 L 186 -333.4 L 182.5 -343.4 L 189.5 -343.399 Z" stroke="#000000" fill="#000000"/></g><g id="node4"><path d=" M 210 -211 L 0 -211 L 0 -175 L 210 -175 L 210 -211 Z" stroke="#000000" fill="url(#g-processsj71l2ef)"/><text fill="#000000" font-family="open sans,noto sans sc,noto sans tc,noto sans jp,noto sans kr" font-size="10" text-anchor="start" x="7" y="-190.5">ROOT = Object with widest concave vertex</text></g><g id="edge3"><path d=" M 175.244 -298.799 C 161.829 -278.595 138.712 -243.776 122.678 -219.627" stroke="#000000" fill="none"/><path d=" M 125.57 -217.655 L 117.123 -211.259 L 119.739 -221.526 L 125.57 -217.655 Z" stroke="#000000" fill="#000000"/><text fill="#000000" font-family="open sans,noto sans sc,noto sans tc,noto sans jp,noto sans kr" font-weight="700" font-size="10" text-anchor="start" x="164" y="-277">True </text><path d=" M 192 -273 L 158.652 -273" stroke="#000000" fill="none"/></g><g id="node5"><path d=" M 301 -260 L 213.676 -242 L 301 -224 L 388.324 -242 L 301 -260 Z" stroke="#000000" fill="url(#g-decisionsj71l2ef)"/><text fill="#000000" font-family="open sans,noto sans sc,noto sans tc,noto sans jp,noto sans kr" font-size="10" text-anchor="start" x="256.5" y="-239.5">2 vertices &gt; 90 deg.</text></g><g id="edge4"><path d=" M 208.173 -300.925 C 225.946 -289.643 251.07 -273.695 270.699 -261.235" stroke="#000000" fill="none"/><path d=" M 272.718 -264.099 L 279.285 -255.784 L 268.966 -258.189 L 272.718 -264.099 Z" stroke="#000000" fill="#000000"/><text fill="#000000" font-family="open sans,noto sans sc,noto sans tc,noto sans jp,noto sans kr" font-weight="700" font-size="10" text-anchor="start" x="251" y="-277">False </text><path d=" M 281 -273 L 251.079 -273" stroke="#000000" fill="none"/></g><g id="node10"><ellipse cx="301" cy="-18" rx="64.5068" ry="18" stroke="#000000" fill="url(#g-terminatorsj71l2ef)"/><text fill="#000000" font-family="open sans,noto sans sc,noto sans tc,noto sans jp,noto sans kr" font-size="10" text-anchor="start" x="254" y="-15.5">Root object selected</text></g><g id="edge9"><path d=" M 108.893 -174.717 C 115.782 -146.734 132.746 -93.3403 167 -63 C 185.726 -46.4131 210.786 -35.9007 234.166 -29.2551" stroke="#000000" fill="none"/><path d=" M 235.288 -32.5788 L 244.06 -26.6373 L 233.497 -25.8117 L 235.288 -32.5788 Z" stroke="#000000" fill="#000000"/></g><g id="node6"><path d=" M 370.5 -162 L 231.5 -162 L 231.5 -126 L 370.5 -126 L 370.5 -162 Z" stroke="#000000" fill="url(#g-processsj71l2ef)"/><text fill="#000000" font-family="open sans,noto sans sc,noto sans tc,noto sans jp,noto sans kr" font-size="10" text-anchor="start" x="238.5" y="-141.5">Root = O. w/ greatest angle</text></g><g id="edge5"><path d=" M 301 -223.567 C 301 -209.103 301 -188.724 301 -172.211" stroke="#000000" fill="none"/><path d=" M 304.5 -172.019 L 301 -162.019 L 297.5 -172.019 L 304.5 -172.019 Z" stroke="#000000" fill="#000000"/><text fill="#000000" font-family="open sans,noto sans sc,noto sans tc,noto sans jp,noto sans kr" font-weight="700" font-size="10" text-anchor="start" x="301" y="-191.5">True </text><path d=" M 329 -187.5 L 301 -187.5" stroke="#000000" fill="none"/></g><g id="node8"><path d=" M 601.5 -162 L 468.5 -162 L 468.5 -126 L 601.5 -126 L 601.5 -162 Z" stroke="#000000" fill="url(#g-processsj71l2ef)"/><text fill="#000000" font-family="open sans,noto sans sc,noto sans tc,noto sans jp,noto sans kr" font-size="10" text-anchor="start" x="475.5" y="-141.5">Root = O. w/ longest edge</text></g><g id="edge7"><path d=" M 330.163 -229.786 C 368.217 -213.849 435.484 -185.678 482.515 -165.981" stroke="#000000" fill="none"/><path d=" M 484.06 -169.128 L 491.932 -162.037 L 481.356 -162.672 L 484.06 -169.128 Z" stroke="#000000" fill="#000000"/><text fill="#000000" font-family="open sans,noto sans sc,noto sans tc,noto sans jp,noto sans kr" font-weight="700" font-size="10" text-anchor="start" x="459" y="-191.5">False </text><path d=" M 489 -187.5 L 428.849 -187.5" stroke="#000000" fill="none"/></g><g id="node7"><path d=" M 402 -99 L 200 -99 L 200 -63 L 402 -63 L 402 -99 Z" stroke="#000000" fill="url(#g-processsj71l2ef)"/><text fill="#000000" font-family="open sans,noto sans sc,noto sans tc,noto sans jp,noto sans kr" font-size="10" text-anchor="start" x="207" y="-78.5">Root.Child = O. w/ second greatest angle</text></g><g id="edge6"><path d=" M 301 -125.778 C 301 -120.729 301 -115.123 301 -109.634" stroke="#000000" fill="none"/><path d=" M 304.5 -109.399 L 301 -99.3995 L 297.5 -109.4 L 304.5 -109.399 Z" stroke="#000000" fill="#000000"/></g><g id="edge10"><path d=" M 301 -62.7778 C 301 -57.7287 301 -52.1226 301 -46.6335" stroke="#000000" fill="none"/><path d=" M 304.5 -46.3995 L 301 -36.3995 L 297.5 -46.3995 L 304.5 -46.3995 Z" stroke="#000000" fill="#000000"/></g><g id="node9"><path d=" M 668.5 -99 L 467.5 -99 L 467.5 -63 L 668.5 -63 L 668.5 -99 Z" stroke="#000000" fill="url(#g-processsj71l2ef)"/><text fill="#000000" font-family="open sans,noto sans sc,noto sans tc,noto sans jp,noto sans kr" font-size="10" text-anchor="start" x="474.5" y="-78.5">Root.Child = O. w/ secondg longest edge</text></g><g id="edge8"><path d=" M 544.545 -125.778 C 547.393 -120.34 550.58 -114.257 553.664 -108.369" stroke="#000000" fill="none"/><path d=" M 556.822 -109.882 L 558.362 -99.3995 L 550.622 -106.634 L 556.822 -109.882 Z" stroke="#000000" fill="#000000"/></g><g id="edge11"><path d=" M 491.489 -62.9467 C 449.9 -53.1338 399.228 -41.1775 360.604 -32.0639" stroke="#000000" fill="none"/><path d=" M 361.09 -28.5825 L 350.553 -29.6924 L 359.482 -35.3954 L 361.09 -28.5825 Z" stroke="#000000" fill="#000000"/></g></g></svg>