<svg version="1.1" width="800" height="741.333" viewBox="0 0 600 555.71" xmlns="http://www.w3.org/2000/svg" xmlns:xlink="http://www.w3.org/1999/xlink" overflow="hidden"><defs><linearGradient x1="0%" y1="0%" x2="100%" y2="0%" spreadMethod="pad" id="g-terminator9xnb2r9x1"><stop offset="0" stop-color="#FF8787" stop-opacity="1"/><stop offset="1" stop-color="#FFB9B9" stop-opacity="1"/></linearGradient><linearGradient x1="0%" y1="0%" x2="100%" y2="0%" spreadMethod="pad" id="g-decision9xnb2r9x1"><stop offset="0" stop-color="#FFD287" stop-opacity="1"/><stop offset="1" stop-color="#FFFFB9" stop-opacity="1"/></linearGradient><linearGradient x1="0%" y1="0%" x2="100%" y2="0%" spreadMethod="pad" id="g-process9xnb2r9x1"><stop offset="0" stop-color="#99FF99" stop-opacity="1"/><stop offset="1" stop-color="#CBFFCB" stop-opacity="1"/></linearGradient><linearGradient x1="0%" y1="0%" x2="100%" y2="0%" spreadMethod="pad" id="g-default9xnb2r9x1"><stop offset="0" stop-color="#99FF99" stop-opacity="1"/><stop offset="1" stop-color="#CBFFCB" stop-opacity="1"/></linearGradient><linearGradient x1="0%" y1="0%" x2="100%" y2="0%" spreadMethod="pad" id="g-module9xnb2r9x1"><stop offset="0" stop-color="#77C1E4" stop-opacity="1"/><stop offset="1" stop-color="#A9F3FF" stop-opacity="1"/></linearGradient><linearGradient x1="0%" y1="0%" x2="100%" y2="0%" spreadMethod="pad" id="g-dataio9xnb2r9x1"><stop offset="0" stop-color="#BEBEBE" stop-opacity="1"/><stop offset="1" stop-color="#F0F0F0" stop-opacity="1"/></linearGradient><linearGradient x1="0%" y1="0%" x2="100%" y2="0%" spreadMethod="pad" id="g-preparation9xnb2r9x1"><stop offset="0" stop-color="#BEBEBE" stop-opacity="1"/><stop offset="1" stop-color="#F0F0F0" stop-opacity="1"/></linearGradient><linearGradient x1="0%" y1="0%" x2="100%" y2="0%" spreadMethod="pad" id="g-comment9xnb2r9x1"><stop offset="0" stop-color="#F5F588" stop-opacity="1"/><stop offset="1" stop-color="#FFFFBA" stop-opacity="1"/></linearGradient><linearGradient x1="0%" y1="0%" x2="100%" y2="0%" spreadMethod="pad" id="g-manual9xnb2r9x1"><stop offset="0" stop-color="#9E78FF" stop-opacity="1"/><stop offset="1" stop-color="#D0AAFF" stop-opacity="1"/></linearGradient></defs><g id="flow9xnb2r9x1" transform="matrix(0.991196,0,0,0.991196,3.96478,546.744)"><g id="node1"><ellipse cx="524" cy="-529.6" rx="68.0705" ry="18" stroke="#000000" fill="url(#g-terminator9xnb2r9x1)"/><text fill="#000000" font-family="open sans,noto sans sc,noto sans tc,noto sans jp,noto sans kr" font-size="10" text-anchor="start" x="474" y="-527.1">Polygon P, 2 fingers C</text></g><g id="node2"><path d=" M 573 -484.6 L 475 -484.6 L 475 -448.6 L 573 -448.6 L 573 -484.6 Z" stroke="#000000" fill="url(#g-process9xnb2r9x1)"/><text fill="#000000" font-family="open sans,noto sans sc,noto sans tc,noto sans jp,noto sans kr" font-size="10" text-anchor="start" x="482" y="-464.1">e1,e2 = edge pairs</text></g><g id="edge1"><path d=" M 524 -511.378 C 524 -506.329 524 -500.723 524 -495.234" stroke="#000000" fill="none"/><path d=" M 527.5 -494.999 L 524 -485 L 520.5 -495 L 527.5 -494.999 Z" stroke="#000000" fill="#000000"/></g><g id="node3"><ellipse cx="524" cy="-419.8" rx="1.8" ry="1.8" stroke="#000000" fill="#000000"/><text fill="#000000" font-family="open sans,noto sans sc,noto sans tc,noto sans jp,noto sans kr" font-weight="700" font-size="10" text-anchor="start" x="520.2" y="-425.6"></text></g><g id="edge2"><path d=" M 524 -448.372 C 524 -438.106 524 -426.442 524 -421.83" stroke="#000000" fill="none"/></g><g id="node4"><path d=" M 360 -391 L 315.755 -373 L 360 -355 L 404.245 -373 L 360 -391 Z" stroke="#000000" fill="url(#g-decision9xnb2r9x1)"/><text fill="#000000" font-family="open sans,noto sans sc,noto sans tc,noto sans jp,noto sans kr" font-size="10" text-anchor="start" x="341.5" y="-370.5">last pair</text></g><g id="edge7"><path d=" M 522.158 -419.274 C 509.948 -415.79 439.816 -395.777 395.874 -383.237" stroke="#000000" fill="none"/><path d=" M 396.699 -379.833 L 386.122 -380.454 L 394.778 -386.564 L 396.699 -379.833 Z" stroke="#000000" fill="#000000"/></g><g id="node5"><path d=" M 319 -318 L 198.076 -300 L 319 -282 L 439.924 -300 L 319 -318 Z" stroke="#000000" fill="url(#g-decision9xnb2r9x1)"/><text fill="#000000" font-family="open sans,noto sans sc,noto sans tc,noto sans jp,noto sans kr" font-size="10" text-anchor="start" x="254.5" y="-297.5">e12 normals + C span origin</text></g><g id="edge3"><path d=" M 351.703 -358.227 C 346.438 -348.853 339.485 -336.474 333.344 -325.54" stroke="#000000" fill="none"/><path d=" M 336.381 -323.798 L 328.432 -316.793 L 330.277 -327.226 L 336.381 -323.798 Z" stroke="#000000" fill="#000000"/><text fill="#000000" font-family="open sans,noto sans sc,noto sans tc,noto sans jp,noto sans kr" font-weight="700" font-size="10" text-anchor="start" x="342" y="-335">False </text><path d=" M 372 -331 L 336.868 -331" stroke="#000000" fill="none"/></g><g id="node6"><path d=" M 168 -245 L 27.1164 -227 L 168 -209 L 308.884 -227 L 168 -245 Z" stroke="#000000" fill="url(#g-decision9xnb2r9x1)"/><text fill="#000000" font-family="open sans,noto sans sc,noto sans tc,noto sans jp,noto sans kr" font-size="10" text-anchor="start" x="91.5" y="-224.5">w of e can complete convex cone</text></g><g id="edge4"><path d=" M 290.243 -286.097 C 266.618 -274.676 232.926 -258.388 206.893 -245.803" stroke="#000000" fill="none"/><path d=" M 208.209 -242.551 L 197.682 -241.35 L 205.162 -248.853 L 208.209 -242.551 Z" stroke="#000000" fill="#000000"/><text fill="#000000" font-family="open sans,noto sans sc,noto sans tc,noto sans jp,noto sans kr" font-weight="700" font-size="10" text-anchor="start" x="253" y="-262">True </text><path d=" M 281 -258 L 233.002 -258" stroke="#000000" fill="none"/></g><g id="node9"><path d=" M 352.5 -36 L 297.5 -36 L 297.5 -0 L 352.5 -0 L 352.5 -36 Z" stroke="#000000" fill="url(#g-process9xnb2r9x1)"/><text fill="#000000" font-family="open sans,noto sans sc,noto sans tc,noto sans jp,noto sans kr" font-size="10" text-anchor="start" x="304.5" y="-15.5">next pair</text></g><g id="edge10"><path d=" M 354.033 -287.082 C 378.573 -275.515 407 -255.882 407 -227 C 407 -227 407 -227 407 -81 C 407 -56.6041 383.895 -40.3563 362.214 -30.4803" stroke="#000000" fill="none"/><path d=" M 363.337 -27.1558 L 352.761 -26.5088 L 360.625 -33.6093 L 363.337 -27.1558 Z" stroke="#000000" fill="#000000"/><text fill="#000000" font-family="open sans,noto sans sc,noto sans tc,noto sans jp,noto sans kr" font-weight="700" font-size="10" text-anchor="start" x="407" y="-152.5">False </text><path d=" M 437 -148.5 L 407 -148.5" stroke="#000000" fill="none"/></g><g id="node7"><path d=" M 146 -172 L 0 -172 L 0 -136 L 146 -136 L 146 -172 Z" stroke="#000000" fill="url(#g-process9xnb2r9x1)"/><text fill="#000000" font-family="open sans,noto sans sc,noto sans tc,noto sans jp,noto sans kr" font-size="10" text-anchor="start" x="7" y="-151.5">Find optimal finger locations</text></g><g id="edge5"><path d=" M 147.853 -211.519 C 135.287 -201.862 118.846 -189.229 104.574 -178.262" stroke="#000000" fill="none"/><path d=" M 106.53 -175.351 L 96.4679 -172.033 L 102.265 -180.902 L 106.53 -175.351 Z" stroke="#000000" fill="#000000"/><text fill="#000000" font-family="open sans,noto sans sc,noto sans tc,noto sans jp,noto sans kr" font-weight="700" font-size="10" text-anchor="start" x="127" y="-189">True </text><path d=" M 155 -185 L 112.791 -185" stroke="#000000" fill="none"/></g><g id="edge9"><path d=" M 180.583 -210.25 C 207.869 -173.926 272.657 -87.6798 305.375 -44.1256" stroke="#000000" fill="none"/><path d=" M 308.262 -46.109 L 311.47 -36.0114 L 302.665 -41.9047 L 308.262 -46.109 Z" stroke="#000000" fill="#000000"/><text fill="#000000" font-family="open sans,noto sans sc,noto sans tc,noto sans jp,noto sans kr" font-weight="700" font-size="10" text-anchor="start" x="254" y="-116">False </text><path d=" M 284 -112 L 254.286 -112" stroke="#000000" fill="none"/></g><g id="node8"><path d=" M 140 -99 L 42 -99 L 42 -63 L 140 -63 L 140 -99 Z" stroke="#000000" fill="url(#g-process9xnb2r9x1)"/><text fill="#000000" font-family="open sans,noto sans sc,noto sans tc,noto sans jp,noto sans kr" font-size="10" text-anchor="start" x="49" y="-78.5">If better -&gt; update</text></g><g id="edge6"><path d=" M 77.4494 -135.955 C 79.4615 -127.795 81.8853 -117.965 84.1233 -108.889" stroke="#000000" fill="none"/><path d=" M 87.5435 -109.638 L 86.5394 -99.0904 L 80.747 -107.962 L 87.5435 -109.638 Z" stroke="#000000" fill="#000000"/></g><g id="edge8"><path d=" M 140.011 -65.2088 C 157.316 -59.8223 176.957 -53.9216 195 -49 C 226.025 -40.5372 261.562 -32.1512 287.631 -26.2395" stroke="#000000" fill="none"/><path d=" M 288.492 -29.6332 L 297.479 -24.0217 L 286.955 -22.8042 L 288.492 -29.6332 Z" stroke="#000000" fill="#000000"/></g><g id="edge11"><path d=" M 352.846 -20.3572 C 410.582 -26.014 538 -42.8229 538 -81 C 538 -373 538 -373 538 -373 C 538 -385.737 533.181 -399.637 529.198 -408.951" stroke="#000000" fill="none"/><path d=" M 525.998 -407.531 L 524.919 -418.071 L 532.335 -410.505 L 525.998 -407.531 Z" stroke="#000000" fill="#000000"/></g></g></svg>